<?xml version="1.0" ?><!DOCTYPE svg  PUBLIC '-//W3C//DTD SVG 1.1//EN'  'http://www.w3.org/Graphics/SVG/1.1/DTD/svg11.dtd'><svg width="64px" height="64px" viewBox="0 0 64 64" enable-background="new 0 0 64 64" version="1.1" xml:space="preserve" xmlns="http://www.w3.org/2000/svg" xmlns:xlink="http://www.w3.org/1999/xlink"><g id="Layer_1"/><g id="Layer_2"/><g id="Layer_4"/><g id="Layer_5"><path d="M45,35.989c-0.002-0.193-0.061-0.383-0.168-0.544l-2-3C42.646,32.167,42.334,32,42,32h-1v-9.978   c0-5.604-3.449-9.085-9-9.085s-9,3.481-9,9.085V32h-1c-0.334,0-0.646,0.167-0.832,0.445l-2,3C19.059,35.609,19,35.803,19,36v6   c0,0.245,0.09,0.481,0.252,0.665l8,9C27.442,51.878,27.714,52,28,52h8c0.284,0,0.555-0.121,0.745-0.333l8.063-9   c0.167-0.187,0.258-0.428,0.255-0.678L45,35.989z M25,22.022c0-4.502,2.551-7.085,7-7.085s7,2.583,7,7.085V32H25V22.022z    M35.553,50h-7.104L21,41.62v-5.317L22.535,34h18.93l1.539,2.308l0.056,5.314L35.553,50z"/><g><circle cx="40.008" cy="38.008" r="0.977"/></g><g><circle cx="24.008" cy="38.008" r="0.977"/></g><g><path d="M32,48c-0.291,0-0.568-0.151-0.758-0.372l-4.037-4.701c-1.186-1.502-1.244-2.763-1.247-2.902    c0-2.249,1.813-4.064,4.042-4.064c0.879,0,1.495,0.296,1.98,0.656c0.491-0.363,1.104-0.658,1.979-0.658    C36.188,35.959,38,37.772,38,40c0,0.14-0.034,1.405-1.199,2.882l-4.042,4.744C32.57,47.848,32.293,48,32.001,48H32z M27.958,40    c0.002,0,0.058,0.717,0.79,1.645l3.25,3.773l3.259-3.804c0.703-0.894,0.742-1.604,0.744-1.634c0-1.104-0.917-2.021-2.042-2.021    c-0.516,0-0.764,0.21-1.273,0.686c-0.382,0.358-1.003,0.381-1.388,0.022c-0.534-0.498-0.781-0.708-1.297-0.708    C28.875,37.958,27.958,38.875,27.958,40L27.958,40z"/></g></g></svg>